<mxfile host="app.diagrams.net" modified="2023-08-28T03:46:46.579Z" agent="Mozilla/5.0 (Windows NT 10.0; Win64; x64) AppleWebKit/537.36 (KHTML, like Gecko) Chrome/115.0.0.0 Safari/537.36" etag="rHytgFJ1f1rbHydZ6hca" version="21.6.2" type="github">
  <diagram id="C5RBs43oDa-KdzZeNtuy" name="Page-1">
    <mxGraphModel dx="1434" dy="758" grid="0" gridSize="10" guides="1" tooltips="1" connect="1" arrows="0" fold="1" page="1" pageScale="1" pageWidth="3300" pageHeight="4681" math="0" shadow="0">
      <root>
        <mxCell id="WIyWlLk6GJQsqaUBKTNV-0" />
        <mxCell id="WIyWlLk6GJQsqaUBKTNV-1" parent="WIyWlLk6GJQsqaUBKTNV-0" />
        <mxCell id="RPXvpbqAMuWJDJZcoUwW-7" style="edgeStyle=orthogonalEdgeStyle;rounded=0;orthogonalLoop=1;jettySize=auto;html=1;exitX=0;exitY=1;exitDx=0;exitDy=0;curved=1;" edge="1" parent="WIyWlLk6GJQsqaUBKTNV-1" source="RPXvpbqAMuWJDJZcoUwW-1" target="RPXvpbqAMuWJDJZcoUwW-3">
          <mxGeometry relative="1" as="geometry" />
        </mxCell>
        <mxCell id="RPXvpbqAMuWJDJZcoUwW-8" value="如果开启偏向模式" style="edgeLabel;html=1;align=center;verticalAlign=middle;resizable=0;points=[];fontSize=15;" vertex="1" connectable="0" parent="RPXvpbqAMuWJDJZcoUwW-7">
          <mxGeometry x="0.0214" y="-3" relative="1" as="geometry">
            <mxPoint x="1" as="offset" />
          </mxGeometry>
        </mxCell>
        <mxCell id="RPXvpbqAMuWJDJZcoUwW-10" style="edgeStyle=orthogonalEdgeStyle;rounded=0;orthogonalLoop=1;jettySize=auto;html=1;exitX=1;exitY=1;exitDx=0;exitDy=0;curved=1;" edge="1" parent="WIyWlLk6GJQsqaUBKTNV-1" source="RPXvpbqAMuWJDJZcoUwW-1" target="RPXvpbqAMuWJDJZcoUwW-9">
          <mxGeometry relative="1" as="geometry" />
        </mxCell>
        <mxCell id="RPXvpbqAMuWJDJZcoUwW-11" value="如果没有开启偏向模式" style="edgeLabel;html=1;align=center;verticalAlign=middle;resizable=0;points=[];fontSize=15;" vertex="1" connectable="0" parent="RPXvpbqAMuWJDJZcoUwW-10">
          <mxGeometry x="-0.1473" y="5" relative="1" as="geometry">
            <mxPoint x="1" y="1" as="offset" />
          </mxGeometry>
        </mxCell>
        <mxCell id="RPXvpbqAMuWJDJZcoUwW-1" value="未锁定状态" style="rounded=1;whiteSpace=wrap;html=1;absoluteArcSize=1;arcSize=14;strokeWidth=2;fontSize=18;" vertex="1" parent="WIyWlLk6GJQsqaUBKTNV-1">
          <mxGeometry x="449" y="59" width="178" height="52" as="geometry" />
        </mxCell>
        <mxCell id="RPXvpbqAMuWJDJZcoUwW-12" style="edgeStyle=orthogonalEdgeStyle;rounded=0;orthogonalLoop=1;jettySize=auto;html=1;exitX=1;exitY=0.5;exitDx=0;exitDy=0;entryX=0;entryY=0.75;entryDx=0;entryDy=0;elbow=vertical;curved=1;fontSize=14;" edge="1" parent="WIyWlLk6GJQsqaUBKTNV-1" source="RPXvpbqAMuWJDJZcoUwW-3" target="RPXvpbqAMuWJDJZcoUwW-9">
          <mxGeometry relative="1" as="geometry" />
        </mxCell>
        <mxCell id="RPXvpbqAMuWJDJZcoUwW-13" value="处于偏向状态,有另外一个线程来竞争锁" style="edgeLabel;html=1;align=center;verticalAlign=middle;resizable=0;points=[];fontSize=15;" vertex="1" connectable="0" parent="RPXvpbqAMuWJDJZcoUwW-12">
          <mxGeometry x="-0.2864" relative="1" as="geometry">
            <mxPoint x="55" as="offset" />
          </mxGeometry>
        </mxCell>
        <mxCell id="RPXvpbqAMuWJDJZcoUwW-3" value="偏向锁状态" style="rounded=1;whiteSpace=wrap;html=1;absoluteArcSize=1;arcSize=14;strokeWidth=2;fontSize=18;" vertex="1" parent="WIyWlLk6GJQsqaUBKTNV-1">
          <mxGeometry x="146" y="278" width="185" height="56" as="geometry" />
        </mxCell>
        <mxCell id="RPXvpbqAMuWJDJZcoUwW-19" style="rounded=0;orthogonalLoop=1;jettySize=auto;html=1;exitX=0.5;exitY=1;exitDx=0;exitDy=0;elbow=vertical;" edge="1" parent="WIyWlLk6GJQsqaUBKTNV-1" source="RPXvpbqAMuWJDJZcoUwW-9" target="RPXvpbqAMuWJDJZcoUwW-14">
          <mxGeometry relative="1" as="geometry" />
        </mxCell>
        <mxCell id="RPXvpbqAMuWJDJZcoUwW-21" value="如果有两个线程以上竞争锁" style="edgeLabel;html=1;align=center;verticalAlign=middle;resizable=0;points=[];fontSize=15;" vertex="1" connectable="0" parent="RPXvpbqAMuWJDJZcoUwW-19">
          <mxGeometry x="-0.0964" y="1" relative="1" as="geometry">
            <mxPoint as="offset" />
          </mxGeometry>
        </mxCell>
        <mxCell id="RPXvpbqAMuWJDJZcoUwW-9" value="轻量级锁定" style="rounded=1;whiteSpace=wrap;html=1;absoluteArcSize=1;arcSize=14;strokeWidth=2;fontSize=18;" vertex="1" parent="WIyWlLk6GJQsqaUBKTNV-1">
          <mxGeometry x="746" y="266" width="185" height="56" as="geometry" />
        </mxCell>
        <mxCell id="RPXvpbqAMuWJDJZcoUwW-14" value="重量级锁定" style="rounded=1;whiteSpace=wrap;html=1;absoluteArcSize=1;arcSize=14;strokeWidth=2;fontSize=18;" vertex="1" parent="WIyWlLk6GJQsqaUBKTNV-1">
          <mxGeometry x="746" y="453" width="185" height="56" as="geometry" />
        </mxCell>
      </root>
    </mxGraphModel>
  </diagram>
</mxfile>
